<svg width="57" height="57" viewBox="0 0 57 57" fill="none" xmlns="http://www.w3.org/2000/svg">
<circle cx="28.4997" cy="28.1218" r="25.5994" stroke="white" stroke-width="5"/>
<path d="M38.4131 35.4497C39.0634 34.4828 39.008 32.366 37.7078 31.6187C36.7131 31.1215 35.5898 31.3161 35.0649 31.7441C34.22 32.2551 33.4062 33.8892 33.4062 35.544L36.3238 35.5404L36.323 38.7977L30.2677 38.7944C30.347 40.4698 31.2607 41.8118 32.9611 42.5591C32.7422 43.2651 31.7167 44.7042 30.3085 44.6067C30.0305 46.1296 29.7663 46.9845 28.5001 48.3682C27.2331 46.9849 26.9689 46.1296 26.6909 44.6067C25.2826 44.7042 24.2572 43.2651 24.0383 42.5591C25.7387 41.8118 26.6524 40.4698 26.7317 38.7944L20.676 38.7977V35.5404L23.5928 35.544C23.5928 33.8892 22.7802 32.2551 21.9345 31.7441C21.4096 31.3165 20.2867 31.1219 19.2924 31.6187C17.9914 32.366 17.9356 34.4832 18.5859 35.4497C12.4423 34.3092 13.0517 28.3772 15.1446 26.2236C16.8361 24.4838 18.6802 24.212 20.1021 24.7606C23.3338 25.9189 25.5072 29.7787 25.6128 35.544H27.3027C27.3027 30.303 26.3906 28.6321 24.014 22.0494C22.817 18.9386 23.5361 15.0926 25.676 11.5513C26.4424 10.2821 27.3998 9.13629 28.5001 7.90918C29.5996 9.13629 30.557 10.2821 31.3234 11.5513C33.4633 15.0926 34.1824 18.9386 32.9862 22.0494C30.6084 28.6321 29.6963 30.3026 29.6963 35.544H31.3861C31.4918 29.7787 33.666 25.9189 36.8968 24.7606C38.3188 24.2124 40.1641 24.4838 41.8547 26.2236C43.9472 28.3772 44.5567 34.3092 38.4131 35.4497H38.4131Z" fill="white"/>
</svg>
