<svg width="146" height="146" viewBox="0 0 146 146" fill="none" xmlns="http://www.w3.org/2000/svg">
<g clip-path="url(#clip0_834_897)">
<path d="M64.2867 66.4023L76.7135 77.9226C80.9628 81.845 83.0875 86.9663 83.0875 93.2859C83.0875 99.4966 80.854 104.672 76.3866 108.812C72.028 112.953 66.4168 115.023 59.5522 115.023C52.9057 115.023 48.8342 113.453 44.8026 109.094C40.771 104.627 38.7552 99.0699 38.7552 92.4234C38.7552 91.2251 38.8099 90.0265 38.9188 88.8279H37.4477C35.8133 93.7312 34.9961 98.3619 34.9961 102.72C34.9961 107.079 35.1597 110.021 35.4867 111.546C38.4286 114.597 41.3015 116.222 46.6405 117.638C52.0884 119.164 57.2098 119.926 62.0038 119.926C71.2652 119.926 78.6745 117.148 84.2317 111.591C89.7885 105.925 92.567 98.7338 92.567 90.0171C92.567 81.3003 89.8429 74.4361 84.395 69.4236L74.6487 60.4198L64.2867 66.4023Z" fill="white"/>
<path d="M35.4428 114.959H33.3713C30.6095 114.959 28.2196 114.003 26.2014 112.091C24.1831 110.073 23.1741 107.682 23.1741 104.921V16.4912C23.2803 13.7295 24.2894 11.3926 26.2014 9.48062C28.2196 7.56862 30.6095 6.61262 33.3713 6.61262H35.4428V5.01929H0.548828V6.61262H2.62015C5.38191 6.61262 7.71878 7.56862 9.63078 9.48062C11.649 11.3926 12.7112 13.7295 12.8174 16.4912V104.921C12.7112 107.682 11.649 110.073 9.63078 112.091C7.71878 114.003 5.38191 114.959 2.62015 114.959H0.548828V116.552H35.4428V114.959Z" fill="white"/>
<path d="M145.646 144.011V142.418C136.51 142.418 127.535 139.975 118.718 135.089C110.008 130.309 102.148 124.148 95.1371 116.606L89.015 110.078C88.1437 111.297 87.1702 112.453 86.0883 113.556C84.5766 115.067 82.9223 116.377 81.1367 117.477L82.8685 119.315C99.2265 136.735 116.116 145.445 133.536 145.445C137.573 145.445 141.609 144.967 145.646 144.011Z" fill="white"/>
<path d="M72.6675 108.441L28.2734 61.1044L65.8759 13.9419C66.7256 12.8797 67.1506 11.9237 67.1506 11.0739C67.1506 10.2241 66.9913 9.48062 66.6725 8.84328C65.8228 7.24995 64.2827 6.4533 62.0519 6.4533H60.4587V5.01929H94.0778V6.4533H93.4405C86.4298 6.4533 80.6938 8.94948 76.2325 13.9419L39.1079 56.8023L79.5307 99.9536C78.4139 102.502 76.7532 104.798 74.548 106.842C73.9452 107.414 73.3183 107.948 72.6675 108.441Z" fill="white"/>
<path d="M64.2873 66.4028L74.6491 60.4205L55.1417 42.4266L47.6862 51.034L64.2873 66.4028Z" fill="white"/>
<path d="M40.1254 42.185C36.8885 37.7058 36.6367 34.9393 36.6367 29.2014C36.6367 21.4653 39.1973 14.8733 44.3184 9.42538C49.5485 3.86836 56.5763 1.08994 65.402 1.08994C69.5425 1.08994 74.2277 1.63466 79.4577 2.72428L88.4576 5.0206H60.4591V6.45459H60.8152C57.2171 7.21451 54.0608 8.913 51.3462 11.55C47.6417 15.2547 45.7893 19.8854 45.7893 25.4423C45.7893 29.1365 45.3858 30.1515 47.3119 33.1714L40.1254 42.185Z" fill="white"/>
<path d="M94.0779 6.45459H93.4409C87.999 6.45459 83.3251 7.95869 79.4192 10.9669C82.7136 13.972 84.3609 17.9254 84.3609 22.8272H85.8319L94.0779 6.45459Z" fill="white"/>
</g>
<defs>
<clipPath id="clip0_834_897">
<rect width="145.724" height="144.71" fill="white" transform="translate(0.0878906 0.865326)"/>
</clipPath>
</defs>
</svg>
