<svg width="137" height="182" viewBox="0 0 137 182" fill="none" xmlns="http://www.w3.org/2000/svg">
<path d="M68.2957 82.6245L50.7816 67.292L50.7817 65.6836L68.2956 50.506L85.8084 65.684L85.8089 67.2925L68.2957 82.6245Z" stroke="#FFFFFE" stroke-width="9.51495"/>
<path d="M111.352 82.6245L93.8383 67.292L93.8383 65.6836L111.352 50.506L128.865 65.684L128.866 67.2925L111.352 82.6245Z" stroke="#FFFFFE" stroke-width="9.51495"/>
<path d="M25.241 82.6245L7.72694 67.292L7.72697 65.6836L25.2409 50.506L42.7538 65.684L42.7542 67.2925L25.241 82.6245Z" stroke="#FFFFFE" stroke-width="9.51495"/>
<path d="M68.2957 168.736L50.7816 153.404L50.7817 151.795L68.2956 136.618L85.8084 151.796L85.8089 153.404L68.2957 168.736Z" stroke="#FFFFFE" stroke-width="9.51495"/>
<path d="M68.2957 42.2622L50.7816 26.9297L50.7817 25.3213L68.2956 10.1437L85.8084 25.3216L85.8089 26.9301L68.2957 42.2622Z" stroke="#FFFFFE" stroke-width="9.51495"/>
<path d="M111.352 125.68L93.8383 110.348L93.8383 108.74L111.352 93.562L128.865 108.74L128.866 110.348L111.352 125.68Z" stroke="#FFFFFE" stroke-width="9.51495"/>
<path d="M111.352 168.736L93.8383 153.404L93.8383 151.795L111.352 136.618L128.865 151.796L128.866 153.404L111.352 168.736Z" stroke="#FFFFFE" stroke-width="9.51495"/>
<path d="M25.241 125.68L7.72694 110.348L7.72697 108.74L25.2409 93.562L42.7538 108.74L42.7542 110.348L25.241 125.68Z" stroke="#FFFFFE" stroke-width="9.51495"/>
<path d="M25.241 168.736L7.72694 153.404L7.72697 151.795L25.2409 136.618L42.7538 151.796L42.7542 153.404L25.241 168.736Z" stroke="#FFFFFE" stroke-width="9.51495"/>
</svg>
