<svg width="1773" height="500" viewBox="0 0 1773 500" fill="none" xmlns="http://www.w3.org/2000/svg">
<path d="M421.882 248.202C421.882 351.737 359.256 370.929 244.16 486.025C131.976 373.84 97.1502 304.884 97.1502 239.471C93.4426 148.813 204.125 39.2715 240.605 3.16805L240.79 2.98571L239.145 250.163C239.145 299.923 282.49 319.128 308.169 319.128C342.834 319.128 377.587 291.646 377.587 248.202L421.882 248.202Z" fill="white"/>
<circle cx="308.271" cy="249.39" r="50.3997" fill="white"/>
<path d="M634.626 374.495C611.992 374.495 591.109 369.245 571.976 358.745C553.076 348.012 538.026 333.195 526.826 314.295C515.859 295.162 510.376 273.695 510.376 249.895C510.376 226.095 515.859 204.745 526.826 185.845C538.026 166.945 553.076 152.245 571.976 141.745C591.109 131.012 611.992 125.645 634.626 125.645C657.492 125.645 678.376 131.012 697.276 141.745C716.409 152.245 731.459 166.945 742.426 185.845C753.392 204.745 758.876 226.095 758.876 249.895C758.876 273.695 753.392 295.162 742.426 314.295C731.459 333.195 716.409 348.012 697.276 358.745C678.376 369.245 657.492 374.495 634.626 374.495ZM634.626 339.845C650.726 339.845 665.076 336.228 677.676 328.995C690.276 321.528 700.076 311.028 707.076 297.495C714.309 283.728 717.926 267.862 717.926 249.895C717.926 231.928 714.309 216.178 707.076 202.645C700.076 189.112 690.276 178.728 677.676 171.495C665.076 164.262 650.726 160.645 634.626 160.645C618.526 160.645 604.176 164.262 591.576 171.495C578.976 178.728 569.059 189.112 561.826 202.645C554.826 216.178 551.326 231.928 551.326 249.895C551.326 267.862 554.826 283.728 561.826 297.495C569.059 311.028 578.976 321.528 591.576 328.995C604.176 336.228 618.526 339.845 634.626 339.845ZM924.489 372.045L868.489 274.745H838.039V372.045H798.139V128.795H882.139C900.805 128.795 916.555 132.062 929.389 138.595C942.455 145.128 952.139 153.878 958.439 164.845C964.972 175.812 968.239 188.062 968.239 201.595C968.239 217.462 963.572 231.928 954.239 244.995C945.139 257.828 931.022 266.578 911.889 271.245L972.089 372.045H924.489ZM838.039 242.895H882.139C897.072 242.895 908.272 239.162 915.739 231.695C923.439 224.228 927.289 214.195 927.289 201.595C927.289 188.995 923.555 179.195 916.089 172.195C908.622 164.962 897.305 161.345 882.139 161.345H838.039V242.895ZM1059.18 160.995V232.395H1143.18V264.945H1059.18V339.495H1153.68V372.045H1019.28V128.445H1153.68V160.995H1059.18ZM1242.38 128.795V283.845C1242.38 302.278 1247.16 316.162 1256.73 325.495C1266.53 334.828 1280.06 339.495 1297.33 339.495C1314.83 339.495 1328.36 334.828 1337.93 325.495C1347.73 316.162 1352.63 302.278 1352.63 283.845V128.795H1392.53V283.145C1392.53 302.978 1388.21 319.778 1379.58 333.545C1370.94 347.312 1359.39 357.578 1344.93 364.345C1330.46 371.112 1314.48 374.495 1296.98 374.495C1279.48 374.495 1263.49 371.112 1249.03 364.345C1234.79 357.578 1223.48 347.312 1215.08 333.545C1206.68 319.778 1202.48 302.978 1202.48 283.145V128.795H1242.38ZM1524.63 374.495C1508.29 374.495 1493.59 371.695 1480.53 366.095C1467.46 360.262 1457.19 352.095 1449.73 341.595C1442.26 331.095 1438.53 318.845 1438.53 304.845H1481.23C1482.16 315.345 1486.24 323.978 1493.48 330.745C1500.94 337.512 1511.33 340.895 1524.63 340.895C1538.39 340.895 1549.13 337.628 1556.83 331.095C1564.53 324.328 1568.38 315.695 1568.38 305.195C1568.38 297.028 1565.93 290.378 1561.03 285.245C1556.36 280.112 1550.41 276.145 1543.18 273.345C1536.18 270.545 1526.38 267.512 1513.78 264.245C1497.91 260.045 1484.96 255.845 1474.93 251.645C1465.13 247.212 1456.73 240.445 1449.73 231.345C1442.73 222.245 1439.23 210.112 1439.23 194.945C1439.23 180.945 1442.73 168.695 1449.73 158.195C1456.73 147.695 1466.53 139.645 1479.13 134.045C1491.73 128.445 1506.31 125.645 1522.88 125.645C1546.44 125.645 1565.69 131.595 1580.63 143.495C1595.79 155.162 1604.19 171.262 1605.83 191.795H1561.73C1561.03 182.928 1556.83 175.345 1549.13 169.045C1541.43 162.745 1531.28 159.595 1518.68 159.595C1507.24 159.595 1497.91 162.512 1490.68 168.345C1483.44 174.178 1479.83 182.578 1479.83 193.545C1479.83 201.012 1482.04 207.195 1486.48 212.095C1491.14 216.762 1496.98 220.495 1503.98 223.295C1510.98 226.095 1520.54 229.128 1532.68 232.395C1548.78 236.828 1561.84 241.262 1571.88 245.695C1582.14 250.128 1590.78 257.012 1597.78 266.345C1605.01 275.445 1608.63 287.695 1608.63 303.095C1608.63 315.462 1605.24 327.128 1598.48 338.095C1591.94 349.062 1582.26 357.928 1569.43 364.695C1556.83 371.228 1541.89 374.495 1524.63 374.495Z" fill="white"/>
</svg>
